<svg width="30" height="31" viewBox="0 0 30 31" fill="none" xmlns="http://www.w3.org/2000/svg">
<path d="M24.162 25.6881C26.7029 23.3426 28.1688 19.8978 28.1688 15.8054C28.1688 14.8526 28.0833 13.9363 27.9245 13.0568H15.2688V18.2608H22.5006C22.183 19.9344 21.2302 21.3514 19.8009 22.3043" stroke="#524242" stroke-width="2" stroke-linecap="round" stroke-linejoin="round"/>
<path d="M3.27271 21.5347C5.48377 25.9202 10.0159 28.9375 15.2687 28.9375C18.8968 28.9375 21.9386 27.7403 24.1619 25.6881L19.8008 22.3042C18.6036 23.1105 17.0767 23.5991 15.2687 23.5991C11.775 23.5991 8.80652 21.2414 7.74371 18.0653" stroke="#524242" stroke-width="2" stroke-linecap="round" stroke-linejoin="round"/>
<path d="M3.2728 9.47754C2.35661 11.2855 1.8313 13.3255 1.8313 15.5C1.8313 17.6744 2.35661 19.7145 3.2728 21.5224L6.75436 18.8105L7.74386 18.0531C7.47511 17.2469 7.3163 16.3917 7.3163 15.5C7.3163 14.6082 7.47511 13.7531 7.74386 12.9469" stroke="#524242" stroke-width="2" stroke-linecap="round" stroke-linejoin="round"/>
<path d="M15.2688 7.41306C17.2478 7.41306 19.0068 8.09712 20.4116 9.4165L24.2596 5.5685C21.9264 3.39406 18.8968 2.06256 15.2687 2.06256C10.0159 2.06256 5.48377 5.07987 3.27271 9.47762L7.74371 12.9469C8.80652 9.77081 11.775 7.41306 15.2688 7.41306Z" stroke="#524242" stroke-width="2" stroke-linecap="round" stroke-linejoin="round"/>
</svg>
